<svg version="1.0" xmlns="http://www.w3.org/2000/svg"
    width="512.000000pt" height="512.000000pt" viewBox="0 0 512.000000 512.000000"
    preserveAspectRatio="xMidYMid meet">

    <g transform="translate(0.000000,512.000000) scale(0.100000,-0.100000)"
        fill="#000000" stroke="none">
        <path
            d="M2037 3918 c44 -109 62 -138 84 -138 69 0 269 -79 269 -106 0 -11 16
-14 71 -14 82 0 81 -2 23 86 -47 71 -113 127 -199 169 -65 32 -192 65 -249 65
l-25 0 26 -62z" />
        <path
            d="M1865 3960 c-59 -12 -187 -63 -192 -77 -7 -19 24 -117 47 -146 l20
-26 64 29 c35 16 93 35 130 41 37 7 63 15 58 18 -5 3 -17 24 -26 46 -10 22
-25 56 -34 75 -8 19 -15 38 -14 43 2 8 3 8 -53 -3z" />
        <path
            d="M3051 3714 c-67 -18 -143 -61 -206 -116 l-48 -42 29 -9 c36 -10 51
-13 140 -30 66 -13 72 -13 95 6 48 38 133 74 159 67 93 -26 187 -110 205 -183
l7 -27 109 0 c128 0 127 0 78 98 -90 181 -358 293 -568 236z" />
        <path
            d="M2233 3560 c-23 -20 -57 -44 -74 -53 -31 -15 -31 -15 -10 -27 12 -6
67 -43 121 -81 54 -38 100 -69 104 -69 9 0 25 70 32 142 l7 66 -53 27 c-74 38
-80 37 -127 -5z" />
        <path
            d="M1777 3559 c-47 -11 -98 -37 -114 -58 -13 -17 -53 -97 -53 -106 0 -3
51 -5 114 -5 l114 0 30 53 c17 29 46 67 65 84 l35 31 -36 6 c-49 8 -109 6
-155 -5z" />
        <path
            d="M2616 3394 c-3 -9 -6 -31 -6 -49 0 -18 -9 -62 -20 -96 -10 -35 -18
-64 -17 -64 1 -1 17 -12 35 -24 18 -13 35 -22 36 -20 2 2 8 42 15 89 6 47 14
97 17 111 5 21 0 30 -24 48 -26 18 -31 19 -36 5z" />
        <path
            d="M2866 3198 c-3 -18 -8 -71 -11 -118 l-5 -85 59 -32 c65 -36 102 -41
121 -18 7 8 19 15 26 15 8 0 19 9 26 20 7 11 20 20 29 20 16 0 46 27 38 34 -2
2 -24 16 -49 31 -25 16 -79 53 -120 84 -41 31 -82 62 -92 69 -15 11 -18 9 -22
-20z" />
        <path
            d="M1605 3210 c-1 -3 6 -29 17 -58 13 -35 41 -76 80 -118 148 -157 394
-207 588 -118 66 30 151 93 179 132 l20 29 -140 0 -140 1 -49 -32 c-27 -18
-67 -39 -90 -46 -35 -12 -44 -11 -81 5 -51 24 -122 102 -145 160 -9 25 -19 45
-23 46 -24 4 -213 4 -216 -1z" />
        <path
            d="M3386 3096 c-14 -24 -44 -58 -67 -74 l-41 -31 37 -7 c56 -10 185 1
232 21 42 17 70 50 92 108 l11 27 -119 0 -119 0 -26 -44z" />
        <path
            d="M2660 2659 c0 -157 2 -177 20 -207 23 -38 88 -71 139 -72 l34 0 -6
206 c-3 113 -7 207 -9 209 -1 2 -21 4 -43 6 -22 1 -44 6 -50 10 -5 4 -27 10
-47 14 l-38 7 0 -173z" />
        <path
            d="M1532 2069 c-35 -23 -36 -47 -3 -82 17 -17 19 -17 49 0 43 25 46 38
14 73 l-27 30 -33 -21z" />
        <path
            d="M850 1891 c-20 -5 -26 -14 -28 -44 -2 -20 -1 -37 1 -37 3 0 22 7 43
16 72 30 154 5 154 -47 0 -13 -13 -17 -72 -21 -116 -7 -178 -50 -178 -121 0
-52 72 -107 138 -107 16 0 49 11 74 24 43 23 45 23 56 5 9 -13 24 -19 52 -19
38 0 39 1 30 26 -6 14 -10 75 -10 135 0 126 -11 158 -64 183 -35 16 -147 21
-196 7z m175 -213 c-12 -39 -35 -68 -61 -78 -36 -14 -49 -12 -74 8 -17 14 -21
25 -17 44 8 32 40 46 105 47 51 1 53 0 47 -21z" />
        <path
            d="M1244 1886 c-64 -28 -84 -102 -41 -151 12 -14 49 -36 82 -48 96 -37
84 -87 -21 -87 -53 0 -89 -19 -81 -43 6 -18 85 -30 146 -22 44 6 62 14 88 40
66 66 35 141 -73 179 -50 18 -59 25 -59 46 0 30 29 39 98 32 47 -5 47 -5 47
26 0 18 -6 32 -16 36 -28 11 -138 6 -170 -8z" />
        <path
            d="M1512 1739 c3 -155 4 -161 27 -180 13 -10 34 -19 47 -19 l24 0 0 180
0 180 -51 0 -50 0 3 -161z" />
        <path
            d="M1738 1888 c-23 -8 -28 -16 -28 -44 0 -19 2 -34 4 -34 2 0 23 7 46
15 63 22 107 19 135 -10 43 -42 34 -52 -53 -58 -120 -8 -172 -44 -172 -118 0
-71 68 -118 155 -105 24 4 55 16 70 28 l26 21 15 -22 c11 -15 26 -21 55 -21
30 0 38 3 32 13 -4 6 -10 71 -13 144 -6 145 -13 162 -77 189 -37 16 -155 17
-195 2z m182 -203 c0 -30 -29 -72 -58 -84 -40 -17 -81 -5 -88 25 -13 51 16 72
99 73 36 1 47 -3 47 -14z" />
        <path
            d="M2090 1720 l0 -180 50 0 50 0 0 100 c0 109 14 161 48 179 32 17 70
13 92 -9 17 -17 20 -33 20 -123 0 -122 11 -147 67 -147 l35 0 -4 143 c-2 87
-9 151 -16 164 -31 56 -142 72 -205 29 -37 -26 -47 -24 -47 6 0 15 -8 18 -45
18 l-45 0 0 -180z" />
    </g>
</svg>